<?xml version="1.0" encoding="UTF-8"?>
<svg xmlns="http://www.w3.org/2000/svg" xmlns:xlink="http://www.w3.org/1999/xlink" width="35px" height="30px" viewBox="0 0 34 30" version="1.1">
<g id="surface1">
<path style=" stroke:none;fill-rule:nonzero;fill:rgb(0%,0%,0%);fill-opacity:1;" d="M 13.867188 13.015625 C 13.839844 12.367188 14.019531 11.796875 14.363281 11.230469 C 13.964844 11.324219 13.609375 11.367188 13.25 11.292969 C 12.285156 11.089844 11.730469 10.265625 11.863281 9.238281 C 12 8.183594 13.039062 7.234375 14.074219 7.21875 C 15.261719 7.203125 16.097656 8.207031 15.886719 9.394531 C 15.847656 9.625 15.78125 9.847656 15.664062 10.132812 C 16.703125 9.707031 17.703125 9.707031 18.726562 10.144531 C 18.585938 9.820312 18.488281 9.527344 18.46875 9.214844 C 18.378906 7.753906 19.667969 6.828125 21.015625 7.375 C 21.804688 7.695312 22.636719 8.5625 22.511719 9.847656 C 22.429688 10.6875 21.632812 11.351562 20.714844 11.324219 C 20.492188 11.316406 20.273438 11.289062 20.023438 11.226562 C 20.074219 11.328125 20.101562 11.398438 20.136719 11.464844 C 20.949219 12.921875 20.390625 14.625 18.972656 15.457031 C 17.671875 16.21875 16.066406 16.074219 14.933594 15.117188 C 14.292969 14.578125 13.925781 13.886719 13.867188 13.015625 Z M 13.867188 13.015625 "/>
<path style=" stroke:none;fill-rule:nonzero;fill:rgb(0%,0%,0%);fill-opacity:1;" d="M 12.28125 16.46875 C 12.089844 16.476562 11.921875 16.445312 11.742188 16.507812 C 11.722656 16.566406 11.851562 16.644531 11.734375 16.691406 C 11.636719 16.730469 11.535156 16.722656 11.445312 16.671875 C 11.371094 16.628906 11.375 16.550781 11.398438 16.480469 C 11.453125 16.328125 11.574219 16.25 11.71875 16.203125 C 12.148438 16.070312 12.585938 16.070312 13.019531 16.160156 C 13.945312 16.351562 14.773438 16.734375 15.433594 17.445312 C 15.585938 17.609375 15.71875 17.792969 15.8125 18 C 16.054688 18.523438 15.902344 19.097656 15.421875 19.417969 C 14.925781 19.75 14.371094 19.792969 13.804688 19.730469 C 13.683594 19.714844 13.597656 19.691406 13.511719 19.824219 C 13.410156 19.984375 13.167969 19.917969 13.132812 19.710938 C 13.101562 19.523438 12.992188 19.449219 12.855469 19.371094 C 12.617188 19.238281 12.40625 19.070312 12.226562 18.863281 C 11.96875 18.570312 12.003906 18.359375 12.335938 18.167969 C 12.511719 18.0625 12.707031 18.007812 12.902344 17.964844 C 13.042969 17.9375 13.113281 17.875 13.113281 17.71875 C 13.113281 17.570312 13.140625 17.421875 13.167969 17.277344 C 13.179688 17.210938 13.191406 17.125 13.273438 17.113281 C 13.367188 17.097656 13.417969 17.179688 13.4375 17.25 C 13.484375 17.390625 13.53125 17.535156 13.539062 17.679688 C 13.550781 17.84375 13.621094 17.894531 13.773438 17.890625 C 14.078125 17.882812 14.375 17.941406 14.640625 18.089844 C 14.941406 18.257812 14.976562 18.578125 14.726562 18.75 C 14.605469 18.832031 14.472656 18.855469 14.359375 18.742188 C 14.347656 18.632812 14.476562 18.628906 14.476562 18.507812 C 14.226562 18.375 13.945312 18.332031 13.652344 18.339844 C 13.574219 18.34375 13.550781 18.40625 13.554688 18.472656 C 13.554688 18.699219 13.539062 18.925781 13.570312 19.152344 C 13.585938 19.261719 13.644531 19.328125 13.75 19.335938 C 14.191406 19.367188 14.628906 19.367188 15.03125 19.136719 C 15.433594 18.902344 15.542969 18.53125 15.339844 18.105469 C 15.082031 17.558594 14.613281 17.246094 14.113281 16.976562 C 13.546875 16.679688 12.941406 16.5 12.28125 16.46875 M 13.097656 18.726562 C 13.089844 18.644531 13.082031 18.558594 13.074219 18.472656 C 13.066406 18.390625 13.023438 18.339844 12.941406 18.347656 C 12.742188 18.363281 12.542969 18.390625 12.359375 18.464844 C 12.265625 18.503906 12.21875 18.578125 12.300781 18.664062 C 12.515625 18.886719 12.765625 19.050781 13.078125 19.148438 C 13.085938 18.996094 13.09375 18.882812 13.097656 18.726562 Z M 13.097656 18.726562 "/>
<path style=" stroke:none;fill-rule:nonzero;fill:rgb(0%,0%,0%);fill-opacity:1;" d="M 21.105469 18.90625 C 21.164062 18.578125 21.300781 18.3125 21.5 18.078125 C 21.558594 18.003906 21.613281 17.867188 21.726562 17.945312 C 21.828125 18.015625 21.75 18.132812 21.710938 18.222656 C 21.613281 18.429688 21.46875 18.621094 21.429688 18.878906 C 21.613281 18.671875 21.785156 18.46875 21.96875 18.28125 C 22.09375 18.15625 22.234375 18.011719 22.429688 18.101562 C 22.621094 18.191406 22.644531 18.382812 22.65625 18.578125 C 22.695312 19.179688 22.230469 19.554688 21.777344 19.640625 C 21.609375 19.671875 21.539062 19.75 21.507812 19.898438 C 21.441406 20.179688 21.378906 20.460938 21.3125 20.738281 C 21.289062 20.839844 21.308594 20.992188 21.15625 20.976562 C 21.011719 20.960938 20.929688 20.847656 20.914062 20.699219 C 20.890625 20.457031 20.921875 20.21875 20.980469 19.984375 C 21 19.898438 21.007812 19.808594 21.050781 19.738281 C 21.207031 19.472656 21.121094 19.199219 21.105469 18.90625 M 22.394531 18.601562 C 22.386719 18.558594 22.410156 18.507812 22.335938 18.46875 C 22.144531 18.65625 21.988281 18.875 21.863281 19.144531 C 22.183594 19.09375 22.316406 18.953125 22.394531 18.601562 Z M 22.394531 18.601562 "/>
<path style=" stroke:none;fill-rule:nonzero;fill:rgb(0%,0%,0%);fill-opacity:1;" d="M 18.207031 18.199219 C 18.039062 18.300781 17.867188 18.296875 17.699219 18.292969 C 17.488281 18.292969 17.277344 18.304688 17.070312 18.398438 C 17.3125 18.433594 17.550781 18.460938 17.789062 18.503906 C 18.070312 18.554688 18.191406 18.679688 18.21875 18.917969 C 18.242188 19.179688 18.136719 19.371094 17.890625 19.472656 C 17.5625 19.609375 17.242188 19.578125 16.941406 19.382812 C 16.8125 19.296875 16.691406 19.191406 16.710938 19.007812 C 16.734375 18.8125 16.886719 18.773438 17.054688 18.722656 C 16.988281 18.714844 16.9375 18.710938 16.890625 18.699219 C 16.777344 18.667969 16.664062 18.636719 16.628906 18.5 C 16.59375 18.355469 16.648438 18.238281 16.746094 18.140625 C 16.90625 17.988281 17.109375 17.9375 17.316406 17.910156 C 17.574219 17.875 17.839844 17.859375 18.09375 17.949219 C 18.199219 17.988281 18.304688 18.035156 18.207031 18.199219 M 17.242188 19.046875 C 17.144531 19.019531 17.046875 18.917969 16.914062 19.035156 C 17.074219 19.203125 17.246094 19.152344 17.472656 19.128906 C 17.371094 19.09375 17.320312 19.078125 17.242188 19.046875 Z M 17.242188 19.046875 "/>
<path style=" stroke:none;fill-rule:nonzero;fill:rgb(0%,0%,0%);fill-opacity:1;" d="M 18.675781 19.042969 C 18.671875 19.171875 18.667969 19.28125 18.652344 19.390625 C 18.640625 19.457031 18.605469 19.527344 18.523438 19.539062 C 18.4375 19.550781 18.375 19.5 18.34375 19.421875 C 18.3125 19.34375 18.289062 19.257812 18.285156 19.175781 C 18.269531 18.835938 18.347656 18.507812 18.457031 18.191406 C 18.53125 17.980469 18.660156 17.964844 18.792969 18.144531 C 18.953125 18.367188 19.101562 18.601562 19.28125 18.871094 C 19.277344 18.503906 19.179688 18.210938 19.109375 17.910156 C 19.089844 17.832031 19.035156 17.734375 19.140625 17.683594 C 19.238281 17.640625 19.304688 17.71875 19.351562 17.785156 C 19.636719 18.164062 19.746094 18.589844 19.671875 19.0625 C 19.65625 19.171875 19.609375 19.273438 19.53125 19.351562 C 19.398438 19.488281 19.257812 19.480469 19.136719 19.335938 C 18.964844 19.132812 18.867188 18.886719 18.699219 18.605469 C 18.691406 18.785156 18.683594 18.902344 18.675781 19.042969 Z M 18.675781 19.042969 "/>
<path style=" stroke:none;fill-rule:nonzero;fill:rgb(0%,0%,0%);fill-opacity:1;" d="M 20.664062 18.296875 C 20.5625 18.308594 20.449219 18.261719 20.425781 18.417969 C 20.507812 18.488281 20.613281 18.445312 20.707031 18.457031 C 20.8125 18.46875 20.882812 18.515625 20.886719 18.628906 C 20.890625 18.75 20.808594 18.789062 20.707031 18.796875 C 20.613281 18.804688 20.523438 18.804688 20.429688 18.804688 C 20.285156 18.808594 20.222656 18.878906 20.230469 19.046875 C 20.378906 19.023438 20.523438 19.003906 20.664062 18.980469 C 20.773438 18.964844 20.863281 18.988281 20.910156 19.097656 C 20.964844 19.222656 20.890625 19.292969 20.804688 19.351562 C 20.65625 19.449219 20.5 19.53125 20.324219 19.570312 C 19.945312 19.65625 19.699219 19.382812 19.792969 18.996094 C 19.855469 18.753906 19.878906 18.496094 20.097656 18.304688 C 20.023438 18.257812 19.984375 18.238281 19.945312 18.214844 C 19.882812 18.175781 19.828125 18.128906 19.839844 18.050781 C 19.855469 17.960938 19.929688 17.949219 20 17.941406 C 20.21875 17.90625 20.4375 17.875 20.660156 17.847656 C 20.734375 17.839844 20.816406 17.84375 20.886719 17.859375 C 21.023438 17.894531 21.132812 17.988281 21.132812 18.132812 C 21.128906 18.292969 20.976562 18.273438 20.867188 18.292969 C 20.808594 18.300781 20.746094 18.296875 20.664062 18.296875 Z M 20.664062 18.296875 "/>
<path style=" stroke:none;fill-rule:nonzero;fill:rgb(0%,0%,0%);fill-opacity:1;" d="M 16.15625 17.691406 C 15.917969 17.804688 15.902344 17.792969 15.824219 17.523438 C 15.671875 16.972656 15.8125 16.683594 16.328125 16.484375 C 16.644531 16.359375 16.992188 16.445312 17.214844 16.695312 C 17.34375 16.839844 17.324219 17.082031 17.152344 17.265625 C 16.886719 17.546875 16.578125 17.726562 16.15625 17.691406 M 16.980469 17.070312 C 17.019531 17.007812 17.054688 16.945312 16.988281 16.882812 C 16.933594 16.828125 16.875 16.851562 16.820312 16.882812 C 16.632812 16.980469 16.460938 17.097656 16.347656 17.324219 C 16.605469 17.34375 16.796875 17.257812 16.980469 17.070312 Z M 16.980469 17.070312 "/>
<path style=" stroke:none;fill-rule:nonzero;fill:rgb(0%,0%,0%);fill-opacity:1;" d="M 16.507812 18.925781 C 16.515625 19.054688 16.53125 19.164062 16.53125 19.269531 C 16.53125 19.398438 16.511719 19.535156 16.347656 19.539062 C 16.203125 19.546875 16.128906 19.453125 16.109375 19.308594 C 16.046875 18.90625 16.089844 18.507812 16.15625 18.109375 C 16.167969 18.023438 16.183594 17.925781 16.296875 17.933594 C 16.398438 17.941406 16.433594 18.03125 16.449219 18.117188 C 16.496094 18.375 16.519531 18.636719 16.507812 18.925781 Z M 16.507812 18.925781 "/>
</g>
</svg>
