<?xml version="1.0" encoding="UTF-8"?>
<svg xmlns="http://www.w3.org/2000/svg" xmlns:xlink="http://www.w3.org/1999/xlink" width="40px" height="40px" viewBox="0 0 40 40" version="1.1">
<g id="surface1">
<path style=" stroke:none;fill-rule:nonzero;fill:rgb(99.607843%,99.607843%,99.607843%);fill-opacity:1;" d="M 0 0 C 13.199219 0 26.398438 0 40 0 C 40 13.199219 40 26.398438 40 40 C 26.800781 40 13.601562 40 0 40 C 0 26.800781 0 13.601562 0 0 Z M 0 0 "/>
<path style=" stroke:none;fill-rule:nonzero;fill:rgb(1.568628%,1.568628%,1.568628%);fill-opacity:1;" d="M 8.066406 14 C 8.15625 14.023438 8.15625 14.023438 8.246094 14.050781 C 9.015625 14.269531 9.753906 14.5 10.464844 14.867188 C 10.550781 14.90625 10.632812 14.945312 10.714844 14.984375 C 11.75 15.480469 12.703125 16.078125 13.601562 16.800781 C 13.652344 16.835938 13.703125 16.871094 13.757812 16.910156 C 13.792969 16.941406 13.828125 16.96875 13.867188 17 C 13.867188 17.042969 13.867188 17.089844 13.867188 17.132812 C 13.925781 17.160156 13.925781 17.160156 13.984375 17.183594 C 15.0625 17.777344 15.8125 19.289062 16.175781 20.394531 C 16.277344 20.964844 16.253906 21.648438 16.066406 22.199219 C 16.035156 22.292969 16.035156 22.292969 16.003906 22.386719 C 15.636719 23.378906 14.925781 24.019531 13.992188 24.480469 C 12.222656 25.25 10.179688 25.386719 8.332031 24.800781 C 8.335938 24.871094 8.339844 24.945312 8.347656 25.019531 C 8.332031 25.265625 8.332031 25.265625 8.242188 25.390625 C 7.976562 25.574219 7.714844 25.582031 7.398438 25.535156 C 7.140625 25.3125 7.074219 25.058594 7 24.734375 C 7 24.65625 7.003906 24.578125 7.003906 24.496094 C 6.957031 24.261719 6.957031 24.261719 6.800781 24.171875 C 6.671875 24.105469 6.546875 24.042969 6.417969 23.980469 C 5.351562 23.425781 4.230469 22.464844 3.667969 21.398438 C 3.601562 21.136719 3.617188 20.90625 3.734375 20.660156 C 4.378906 19.804688 5.789062 19.460938 6.800781 19.3125 C 6.933594 19.296875 7.066406 19.28125 7.199219 19.265625 C 7.199219 19.179688 7.195312 19.09375 7.195312 19.007812 C 7.195312 18.675781 7.234375 18.359375 7.289062 18.035156 C 7.296875 17.980469 7.304688 17.929688 7.3125 17.875 C 7.460938 16.941406 7.460938 16.941406 7.734375 16.667969 C 7.894531 16.679688 7.976562 16.710938 8.09375 16.824219 C 8.59375 17.542969 8.542969 18.359375 8.535156 19.199219 C 8.589844 19.199219 8.644531 19.195312 8.703125 19.195312 C 9.285156 19.1875 9.832031 19.234375 10.398438 19.335938 C 10.523438 19.359375 10.523438 19.359375 10.648438 19.382812 C 11.445312 19.539062 12.226562 19.777344 12.734375 20.464844 C 12.902344 20.75 12.910156 21.007812 12.867188 21.332031 C 12.730469 21.710938 12.480469 21.941406 12.140625 22.140625 C 11.894531 22.242188 11.65625 22.191406 11.398438 22.132812 C 11.195312 22.027344 11.195312 22.027344 11.066406 21.933594 C 11.160156 21.699219 11.246094 21.621094 11.476562 21.515625 C 11.546875 21.484375 11.546875 21.484375 11.621094 21.449219 C 11.660156 21.433594 11.695312 21.417969 11.734375 21.398438 C 11.714844 21.214844 11.683594 21.148438 11.539062 21.027344 C 11.246094 20.894531 10.949219 20.828125 10.632812 20.761719 C 10.574219 20.75 10.511719 20.734375 10.453125 20.71875 C 9.765625 20.570312 9.113281 20.535156 8.398438 20.464844 C 8.398438 21.542969 8.398438 22.621094 8.398438 23.734375 C 8.574219 23.753906 8.753906 23.777344 8.933594 23.800781 C 9.003906 23.8125 9.074219 23.824219 9.148438 23.835938 C 10.789062 24.035156 12.621094 23.847656 13.972656 22.816406 C 14.226562 22.582031 14.386719 22.3125 14.535156 22 C 14.558594 21.949219 14.582031 21.898438 14.609375 21.847656 C 14.820312 21.195312 14.703125 20.398438 14.398438 19.800781 C 13.542969 18.132812 11.929688 17.070312 10.332031 16.199219 C 10.289062 16.175781 10.246094 16.152344 10.199219 16.125 C 7.945312 14.898438 5.15625 14.183594 2.601562 14.667969 C 2.554688 14.6875 2.511719 14.710938 2.464844 14.734375 C 2.761719 14.867188 2.761719 14.867188 3.066406 15 C 3.042969 15.089844 3.023438 15.175781 3 15.265625 C 2.839844 15.269531 2.679688 15.273438 2.515625 15.273438 C 2.472656 15.277344 2.425781 15.277344 2.378906 15.277344 C 1.933594 15.28125 1.933594 15.28125 1.734375 15.132812 C 1.65625 14.9375 1.632812 14.867188 1.667969 14.667969 C 1.832031 14.289062 2.058594 13.996094 2.445312 13.835938 C 4.285156 13.308594 6.246094 13.472656 8.066406 14 Z M 8.066406 14 "/>
<path style=" stroke:none;fill-rule:nonzero;fill:rgb(1.568628%,1.568628%,1.568628%);fill-opacity:1;" d="M 34.464844 19.601562 C 34.546875 20.289062 34.144531 20.816406 33.789062 21.378906 C 33.507812 21.824219 33.320312 22.203125 33.332031 22.734375 C 33.378906 22.671875 33.425781 22.613281 33.472656 22.550781 C 35.210938 20.3125 35.210938 20.3125 36.121094 20.171875 C 36.414062 20.160156 36.609375 20.167969 36.867188 20.308594 C 37.316406 20.839844 37.316406 21.457031 37.28125 22.121094 C 37.191406 23.023438 36.53125 23.828125 35.867188 24.398438 C 35.378906 24.777344 34.859375 24.945312 34.246094 24.9375 C 34.171875 24.9375 34.101562 24.9375 34.03125 24.9375 C 33.976562 24.933594 33.921875 24.933594 33.867188 24.933594 C 33.386719 26.078125 33.042969 27.191406 32.777344 28.402344 C 32.621094 29.113281 32.621094 29.113281 32.535156 29.199219 C 32.382812 29.226562 32.382812 29.226562 32.199219 29.199219 C 31.863281 28.929688 31.605469 28.542969 31.464844 28.132812 C 31.429688 27.496094 31.457031 26.9375 31.667969 26.332031 C 31.703125 26.226562 31.734375 26.117188 31.769531 26.007812 C 31.941406 25.472656 32.113281 24.953125 32.371094 24.449219 C 32.558594 24.0625 32.53125 23.863281 32.398438 23.464844 C 32.222656 22.546875 32.496094 21.703125 32.980469 20.925781 C 33.878906 19.601562 33.878906 19.601562 34.464844 19.601562 Z M 34.464844 19.601562 "/>
<path style=" stroke:none;fill-rule:nonzero;fill:rgb(1.960784%,1.960784%,1.960784%);fill-opacity:1;" d="M 21.472656 19.375 C 21.550781 19.375 21.628906 19.375 21.707031 19.371094 C 22.328125 19.375 22.980469 19.429688 23.535156 19.734375 C 23.566406 20.09375 23.566406 20.09375 23.410156 20.289062 C 23.128906 20.511719 22.859375 20.480469 22.511719 20.492188 C 21.878906 20.515625 21.253906 20.566406 20.625 20.632812 C 20.539062 20.640625 20.457031 20.652344 20.371094 20.660156 C 19.910156 20.691406 19.910156 20.691406 19.464844 20.800781 C 19.445312 20.867188 19.421875 20.933594 19.398438 21 C 19.445312 21.003906 19.488281 21.003906 19.535156 21.007812 C 20.050781 21.042969 20.566406 21.097656 21.078125 21.160156 C 21.144531 21.164062 21.214844 21.171875 21.28125 21.179688 C 21.960938 21.265625 22.617188 21.375 23.085938 21.910156 C 23.304688 22.210938 23.285156 22.453125 23.289062 22.816406 C 23.289062 22.902344 23.289062 22.902344 23.292969 22.988281 C 23.296875 23.359375 23.25 23.570312 23 23.867188 C 22.742188 24.117188 22.46875 24.226562 22.132812 24.332031 C 22.066406 24.355469 21.996094 24.378906 21.925781 24.402344 C 21.605469 24.480469 21.308594 24.492188 20.984375 24.492188 C 20.890625 24.492188 20.890625 24.492188 20.796875 24.492188 C 20.152344 24.480469 19.648438 24.328125 19.132812 23.933594 C 19.0625 23.882812 18.992188 23.828125 18.921875 23.773438 C 18.640625 23.511719 18.523438 23.28125 18.5 22.898438 C 18.507812 22.675781 18.542969 22.546875 18.683594 22.371094 C 19.140625 21.945312 19.671875 22.03125 20.265625 22.039062 C 20.796875 22.0625 21.433594 22.160156 21.859375 22.503906 C 21.933594 22.601562 21.933594 22.601562 21.941406 22.734375 C 21.847656 22.902344 21.734375 22.964844 21.550781 23.03125 C 20.933594 23.175781 20.386719 23.042969 19.824219 22.789062 C 19.613281 22.714844 19.421875 22.726562 19.199219 22.734375 C 19.167969 22.898438 19.167969 22.898438 19.132812 23.066406 C 19.695312 23.445312 20.453125 23.402344 21.097656 23.28125 C 21.199219 23.261719 21.300781 23.238281 21.398438 23.214844 C 21.445312 23.207031 21.492188 23.195312 21.542969 23.183594 C 21.847656 23.109375 22.082031 23 22.332031 22.800781 C 22.398438 22.625 22.398438 22.625 22.398438 22.464844 C 21.769531 22.085938 21.054688 22.023438 20.335938 21.953125 C 20.25 21.945312 20.167969 21.9375 20.085938 21.929688 C 19.917969 21.914062 19.753906 21.898438 19.589844 21.882812 C 19.132812 21.84375 18.789062 21.78125 18.398438 21.535156 C 18.253906 21.238281 18.320312 20.863281 18.378906 20.550781 C 18.566406 20.082031 18.9375 19.894531 19.378906 19.691406 C 20.070312 19.40625 20.730469 19.382812 21.472656 19.375 Z M 21.472656 19.375 "/>
<path style=" stroke:none;fill-rule:nonzero;fill:rgb(2.352941%,2.352941%,2.352941%);fill-opacity:1;" d="M 18.511719 14.902344 C 18.574219 14.902344 18.632812 14.902344 18.695312 14.898438 C 19.082031 14.902344 19.308594 14.9375 19.601562 15.199219 C 19.632812 15.300781 19.632812 15.300781 19.667969 15.398438 C 19.734375 15.40625 19.804688 15.410156 19.875 15.417969 C 20.195312 15.480469 20.421875 15.589844 20.625 15.851562 C 20.761719 16.347656 20.636719 16.6875 20.394531 17.132812 C 19.914062 17.882812 19.082031 18.457031 18.222656 18.707031 C 17.734375 18.789062 17.222656 18.757812 16.734375 18.667969 C 16.707031 18.710938 16.683594 18.753906 16.660156 18.800781 C 16.535156 18.933594 16.535156 18.933594 16.335938 18.976562 C 16.132812 18.933594 16.132812 18.933594 15.980469 18.769531 C 15.863281 18.523438 15.839844 18.355469 15.824219 18.085938 C 15.796875 17.917969 15.746094 17.8125 15.664062 17.667969 C 15.503906 17.375 15.46875 17.125 15.535156 16.800781 C 15.828125 16.015625 16.460938 15.480469 17.199219 15.132812 C 17.640625 14.949219 18.039062 14.902344 18.511719 14.902344 Z M 18.511719 14.902344 "/>
<path style=" stroke:none;fill-rule:nonzero;fill:rgb(1.960784%,1.960784%,1.960784%);fill-opacity:1;" d="M 32.132812 19.765625 C 32.269531 19.878906 32.367188 19.984375 32.464844 20.132812 C 32.53125 20.230469 32.53125 20.230469 32.601562 20.332031 C 32.605469 20.488281 32.605469 20.644531 32.601562 20.800781 C 31.820312 21.03125 31.007812 21.011719 30.199219 21 C 30.191406 21.0625 30.179688 21.125 30.171875 21.1875 C 30.132812 21.398438 30.132812 21.398438 30.066406 21.601562 C 30.109375 21.597656 30.148438 21.597656 30.191406 21.597656 C 30.382812 21.59375 30.570312 21.59375 30.757812 21.589844 C 30.824219 21.589844 30.890625 21.589844 30.957031 21.589844 C 31.050781 21.585938 31.050781 21.585938 31.148438 21.585938 C 31.207031 21.585938 31.261719 21.585938 31.324219 21.585938 C 31.464844 21.601562 31.464844 21.601562 31.601562 21.734375 C 31.625 21.871094 31.625 21.871094 31.628906 22.027344 C 31.632812 22.105469 31.632812 22.105469 31.636719 22.1875 C 31.601562 22.332031 31.601562 22.332031 31.457031 22.441406 C 31.242188 22.546875 31.105469 22.554688 30.871094 22.554688 C 30.796875 22.550781 30.722656 22.550781 30.644531 22.550781 C 30.566406 22.550781 30.492188 22.546875 30.414062 22.546875 C 30.335938 22.546875 30.257812 22.542969 30.175781 22.542969 C 29.984375 22.539062 29.792969 22.539062 29.601562 22.535156 C 29.59375 22.574219 29.582031 22.613281 29.574219 22.652344 C 29.5625 22.707031 29.554688 22.757812 29.542969 22.8125 C 29.53125 22.863281 29.519531 22.917969 29.507812 22.96875 C 29.464844 23.144531 29.402344 23.300781 29.332031 23.464844 C 29.402344 23.453125 29.402344 23.453125 29.472656 23.441406 C 29.679688 23.40625 29.890625 23.371094 30.101562 23.332031 C 30.207031 23.3125 30.207031 23.3125 30.316406 23.292969 C 31.351562 23.117188 31.351562 23.117188 31.667969 23.339844 C 31.800781 23.535156 31.800781 23.535156 31.855469 23.726562 C 31.765625 24.0625 31.550781 24.210938 31.265625 24.398438 C 30.542969 24.8125 29.789062 25.207031 28.933594 25.066406 C 28.578125 24.910156 28.328125 24.644531 28.175781 24.289062 C 28.039062 23.785156 28.121094 23.324219 28.289062 22.84375 C 28.359375 22.554688 28.339844 22.273438 28.328125 21.980469 C 28.332031 21.800781 28.332031 21.800781 28.464844 21.667969 C 28.53125 21.660156 28.597656 21.652344 28.667969 21.644531 C 28.765625 21.625 28.765625 21.625 28.867188 21.601562 C 28.957031 21.449219 28.957031 21.449219 29 21.265625 C 29.042969 21.15625 29.089844 21.042969 29.132812 20.933594 C 29.097656 20.917969 29.0625 20.902344 29.027344 20.890625 C 28.695312 20.738281 28.496094 20.609375 28.332031 20.265625 C 28.324219 20.117188 28.324219 20.117188 28.398438 20 C 29.265625 19.625 31.253906 19.335938 32.132812 19.765625 Z M 32.132812 19.765625 "/>
<path style=" stroke:none;fill-rule:nonzero;fill:rgb(1.960784%,1.960784%,1.960784%);fill-opacity:1;" d="M 26.332031 18.800781 C 26.753906 18.855469 26.945312 19.070312 27.199219 19.398438 C 27.742188 20.257812 27.945312 21.101562 27.957031 22.109375 C 27.960938 22.171875 27.960938 22.234375 27.960938 22.300781 C 27.957031 22.949219 27.835938 23.652344 27.398438 24.152344 C 27.175781 24.34375 26.953125 24.359375 26.664062 24.355469 C 26.433594 24.316406 26.34375 24.179688 26.199219 24 C 26.171875 23.964844 26.140625 23.929688 26.113281 23.890625 C 25.816406 23.515625 25.597656 23.109375 25.378906 22.683594 C 25.34375 22.613281 25.308594 22.546875 25.269531 22.476562 C 24.984375 21.925781 24.984375 21.925781 24.933594 21.667969 C 24.890625 21.667969 24.84375 21.667969 24.800781 21.667969 C 24.796875 21.726562 24.792969 21.789062 24.789062 21.851562 C 24.78125 22.082031 24.765625 22.316406 24.753906 22.546875 C 24.75 22.644531 24.742188 22.742188 24.738281 22.84375 C 24.671875 24.195312 24.671875 24.195312 24.332031 24.535156 C 24.070312 24.5625 23.925781 24.578125 23.707031 24.417969 C 23.292969 23.839844 23.492188 22.648438 23.589844 21.980469 C 23.710938 21.230469 23.863281 20.429688 24.398438 19.867188 C 24.589844 19.8125 24.589844 19.8125 24.800781 19.867188 C 25.285156 20.191406 25.570312 20.777344 25.867188 21.265625 C 25.902344 21.324219 25.9375 21.378906 25.972656 21.4375 C 26.082031 21.621094 26.195312 21.800781 26.304688 21.984375 C 26.339844 22.042969 26.375 22.101562 26.414062 22.160156 C 26.445312 22.214844 26.480469 22.269531 26.511719 22.328125 C 26.542969 22.378906 26.570312 22.425781 26.601562 22.476562 C 26.667969 22.601562 26.667969 22.601562 26.667969 22.734375 C 26.734375 22.734375 26.796875 22.734375 26.867188 22.734375 C 26.664062 21.265625 26.664062 21.265625 26.300781 19.828125 C 26.210938 19.542969 26.175781 19.300781 26.199219 19 C 26.242188 18.933594 26.289062 18.867188 26.332031 18.800781 Z M 26.332031 18.800781 "/>
<path style=" stroke:none;fill-rule:nonzero;fill:rgb(3.137255%,3.137255%,3.137255%);fill-opacity:1;" d="M 17.230469 19.363281 C 17.445312 19.410156 17.492188 19.472656 17.617188 19.648438 C 17.648438 19.695312 17.683594 19.742188 17.71875 19.789062 C 17.867188 20.050781 17.875 20.285156 17.875 20.578125 C 17.875 20.65625 17.878906 20.734375 17.878906 20.8125 C 17.878906 20.894531 17.878906 20.976562 17.878906 21.058594 C 17.878906 21.144531 17.878906 21.230469 17.878906 21.316406 C 17.878906 21.496094 17.878906 21.675781 17.878906 21.855469 C 17.878906 22.082031 17.878906 22.3125 17.882812 22.539062 C 17.882812 22.757812 17.882812 22.980469 17.882812 23.199219 C 17.882812 23.28125 17.882812 23.363281 17.882812 23.445312 C 17.882812 23.523438 17.882812 23.597656 17.882812 23.679688 C 17.882812 23.746094 17.882812 23.8125 17.882812 23.882812 C 17.859375 24.15625 17.792969 24.339844 17.601562 24.535156 C 17.324219 24.554688 17.136719 24.558594 16.875 24.464844 C 16.617188 24.222656 16.59375 23.847656 16.582031 23.507812 C 16.582031 23.398438 16.582031 23.292969 16.582031 23.183594 C 16.582031 23.125 16.585938 23.066406 16.585938 23.003906 C 16.589844 22.476562 16.621094 21.953125 16.660156 21.429688 C 16.664062 21.351562 16.667969 21.277344 16.675781 21.195312 C 16.804688 19.457031 16.804688 19.457031 17.230469 19.363281 Z M 17.230469 19.363281 "/>
<path style=" stroke:none;fill-rule:nonzero;fill:rgb(98.039216%,98.039216%,98.039216%);fill-opacity:1;" d="M 7.132812 20.464844 C 7.15625 21.40625 7.089844 22.332031 7 23.265625 C 5.980469 23.085938 4.734375 22.234375 4.132812 21.398438 C 4.101562 21.210938 4.101562 21.117188 4.207031 20.953125 C 4.9375 20.453125 6.285156 20.433594 7.132812 20.464844 Z M 7.132812 20.464844 "/>
<path style=" stroke:none;fill-rule:nonzero;fill:rgb(97.254902%,97.254902%,97.254902%);fill-opacity:1;" d="M 19.441406 16.117188 C 19.492188 16.117188 19.546875 16.117188 19.597656 16.117188 C 19.734375 16.132812 19.734375 16.132812 19.867188 16.265625 C 19.878906 16.640625 19.804688 16.832031 19.5625 17.117188 C 19.136719 17.558594 18.621094 17.78125 18.003906 17.8125 C 17.914062 17.8125 17.828125 17.808594 17.738281 17.808594 C 17.691406 17.808594 17.644531 17.808594 17.597656 17.804688 C 17.488281 17.804688 17.378906 17.800781 17.265625 17.800781 C 17.265625 17.546875 17.367188 17.472656 17.539062 17.296875 C 17.574219 17.261719 17.613281 17.222656 17.652344 17.183594 C 17.710938 17.125 17.710938 17.125 17.773438 17.066406 C 18.105469 16.746094 18.460938 16.488281 18.867188 16.265625 C 18.910156 16.242188 18.957031 16.214844 19 16.1875 C 19.15625 16.125 19.273438 16.117188 19.441406 16.117188 Z M 19.441406 16.117188 "/>
<path style=" stroke:none;fill-rule:nonzero;fill:rgb(92.941177%,92.941177%,92.941177%);fill-opacity:1;" d="M 19.265625 21.800781 C 21.78125 21.984375 21.78125 21.984375 22.398438 22.398438 C 22.453125 22.53125 22.453125 22.53125 22.464844 22.667969 C 22.042969 23.191406 21.4375 23.304688 20.800781 23.398438 C 20.246094 23.4375 19.648438 23.472656 19.167969 23.160156 C 19.132812 23.128906 19.101562 23.097656 19.066406 23.066406 C 19.125 22.742188 19.125 22.742188 19.199219 22.667969 C 19.5625 22.628906 19.792969 22.703125 20.121094 22.867188 C 20.542969 23.054688 21.113281 23.082031 21.554688 22.957031 C 21.695312 22.898438 21.695312 22.898438 21.867188 22.800781 C 21.855469 22.671875 21.855469 22.671875 21.800781 22.535156 C 21.679688 22.449219 21.679688 22.449219 21.527344 22.390625 C 21.457031 22.359375 21.457031 22.359375 21.382812 22.328125 C 20.894531 22.160156 20.445312 22.109375 19.933594 22.089844 C 19.835938 22.085938 19.835938 22.085938 19.738281 22.082031 C 19.582031 22.078125 19.425781 22.070312 19.265625 22.066406 C 19.265625 21.980469 19.265625 21.890625 19.265625 21.800781 Z M 19.265625 21.800781 "/>
<path style=" stroke:none;fill-rule:nonzero;fill:rgb(96.470588%,96.470588%,96.470588%);fill-opacity:1;" d="M 36.332031 21.199219 C 36.476562 21.226562 36.476562 21.226562 36.601562 21.265625 C 36.640625 21.921875 36.484375 22.351562 36.066406 22.859375 C 35.699219 23.242188 35.25 23.480469 34.734375 23.601562 C 34.667969 23.601562 34.601562 23.601562 34.535156 23.601562 C 34.628906 23.246094 34.789062 23.003906 35.003906 22.714844 C 35.035156 22.671875 35.070312 22.628906 35.101562 22.585938 C 35.382812 22.214844 35.679688 21.867188 36 21.535156 C 36.035156 21.496094 36.066406 21.457031 36.101562 21.417969 C 36.1875 21.320312 36.1875 21.320312 36.332031 21.199219 Z M 36.332031 21.199219 "/>
<path style=" stroke:none;fill-rule:nonzero;fill:rgb(92.941177%,92.941177%,92.941177%);fill-opacity:1;" d="M 19.265625 21.800781 C 21.78125 21.984375 21.78125 21.984375 22.398438 22.398438 C 22.457031 22.53125 22.457031 22.53125 22.464844 22.667969 C 22.300781 22.859375 22.144531 22.992188 21.933594 23.132812 C 21.867188 23.132812 21.800781 23.132812 21.734375 23.132812 C 21.734375 23.046875 21.734375 22.957031 21.734375 22.867188 C 21.777344 22.84375 21.820312 22.824219 21.867188 22.800781 C 21.855469 22.671875 21.855469 22.671875 21.800781 22.535156 C 21.679688 22.449219 21.679688 22.449219 21.527344 22.390625 C 21.457031 22.359375 21.457031 22.359375 21.382812 22.328125 C 20.894531 22.160156 20.445312 22.109375 19.933594 22.089844 C 19.835938 22.085938 19.835938 22.085938 19.738281 22.082031 C 19.582031 22.078125 19.425781 22.070312 19.265625 22.066406 C 19.265625 21.980469 19.265625 21.890625 19.265625 21.800781 Z M 19.265625 21.800781 "/>
<path style=" stroke:none;fill-rule:nonzero;fill:rgb(92.941177%,92.941177%,92.941177%);fill-opacity:1;" d="M 17.734375 15.867188 C 17.570312 16.039062 17.398438 16.191406 17.214844 16.347656 C 16.953125 16.574219 16.730469 16.820312 16.503906 17.085938 C 16.46875 17.125 16.433594 17.160156 16.398438 17.199219 C 16.378906 17.199219 16.355469 17.199219 16.332031 17.199219 C 16.292969 16.882812 16.320312 16.714844 16.507812 16.453125 C 16.855469 16.03125 17.195312 15.851562 17.734375 15.867188 Z M 17.734375 15.867188 "/>
<path style=" stroke:none;fill-rule:nonzero;fill:rgb(43.529412%,43.529412%,43.529412%);fill-opacity:1;" d="M 33.703125 28.210938 C 33.867188 28.265625 33.867188 28.265625 34 28.398438 C 33.960938 28.769531 33.960938 28.769531 33.867188 28.867188 C 33.671875 28.878906 33.671875 28.878906 33.464844 28.867188 C 33.332031 28.734375 33.332031 28.734375 33.3125 28.570312 C 33.332031 28.398438 33.332031 28.398438 33.414062 28.273438 C 33.535156 28.199219 33.535156 28.199219 33.703125 28.210938 Z M 33.703125 28.210938 "/>
<path style=" stroke:none;fill-rule:nonzero;fill:rgb(67.843139%,67.843139%,67.843139%);fill-opacity:1;" d="M 19.265625 21.800781 C 19.617188 21.820312 19.96875 21.84375 20.332031 21.867188 C 20.3125 21.933594 20.289062 22 20.265625 22.066406 C 19.9375 22.066406 19.605469 22.066406 19.265625 22.066406 C 19.265625 21.980469 19.265625 21.890625 19.265625 21.800781 Z M 19.265625 21.800781 "/>
<path style=" stroke:none;fill-rule:nonzero;fill:rgb(92.941177%,92.941177%,92.941177%);fill-opacity:1;" d="M 33.800781 28.398438 C 33.84375 28.421875 33.886719 28.445312 33.933594 28.464844 C 33.910156 28.554688 33.890625 28.644531 33.867188 28.734375 C 33.777344 28.710938 33.691406 28.6875 33.601562 28.667969 C 33.601562 28.601562 33.601562 28.535156 33.601562 28.464844 C 33.664062 28.445312 33.730469 28.421875 33.800781 28.398438 Z M 33.800781 28.398438 "/>
</g>
</svg>
